<?xml version="1.0" encoding="utf-8"?>
<!-- Generator: Adobe Illustrator 18.1.1, SVG Export Plug-In . SVG Version: 6.00 Build 0)  -->
<svg version="1.1" id="Calque_1" xmlns="http://www.w3.org/2000/svg" xmlns:xlink="http://www.w3.org/1999/xlink" x="0px" y="0px"
	 width="82.8px" height="82.8px" viewBox="0 0 82.8 82.8" enable-background="new 0 0 82.8 82.8" xml:space="preserve">
<g>
	<g>
		<path fill="#FFFFFF" d="M46.3,79.5c-1.6,0.2-3.3,0.3-4.9,0.3c-6.7,0-13.3-1.8-19.1-5.1c-5.6-3.2-10.4-7.9-13.7-13.4
			c-0.4-0.7-1.3-0.9-2-0.5c-0.7,0.4-0.9,1.3-0.5,2c3.6,6,8.7,11,14.8,14.5c6.2,3.6,13.4,5.5,20.6,5.5c1.8,0,3.6-0.1,5.3-0.3
			c0.8-0.1,1.4-0.9,1.3-1.7C47.9,80,47.2,79.4,46.3,79.5z M77.4,21c-0.4-0.7-1.3-1-2-0.6c-0.7,0.4-1,1.3-0.6,2
			c3.3,5.7,5,12.3,5,18.9c0,15.2-9,29-22.9,35.2c-0.8,0.3-1.1,1.2-0.8,2c0.2,0.6,0.8,0.9,1.4,0.9c0.2,0,0.4,0,0.6-0.1
			c15-6.6,24.7-21.5,24.7-37.9C82.8,34.3,80.9,27.2,77.4,21z M3,41.4c0-11.7,5.3-22.7,14.5-30c0.6-0.5,0.7-1.5,0.2-2.1
			c-0.5-0.6-1.5-0.7-2.1-0.2C5.7,16.9,0,28.7,0,41.4c0,3.6,0.5,7.1,1.4,10.5c0.2,0.7,0.8,1.1,1.4,1.1c0.1,0,0.3,0,0.4,0
			c0.8-0.2,1.3-1,1.1-1.8C3.4,48,3,44.7,3,41.4z M26.9,5.8C31.5,3.9,36.4,3,41.4,3c10,0,19.5,3.8,26.7,10.8c0.3,0.3,0.7,0.4,1,0.4
			c0.4,0,0.8-0.2,1.1-0.5c0.6-0.6,0.6-1.5,0-2.1C62.4,4.1,52.2,0,41.4,0C36,0,30.8,1,25.8,3C25,3.3,24.7,4.2,25,5
			C25.3,5.7,26.2,6.1,26.9,5.8z M46.3,75c0.1,0,0.1,0,0.2,0c8-1.2,15.2-5.2,20.5-11.3c5.4-6.2,8.3-14.1,8.3-22.2
			c0-11.1-5.5-21.6-14.7-27.9c-0.7-0.5-1.6-0.3-2.1,0.4c-0.5,0.7-0.3,1.6,0.4,2.1c8.4,5.8,13.4,15.3,13.4,25.5
			c0,7.5-2.7,14.7-7.6,20.3C60,67.3,53.3,70.9,46.1,72c-0.8,0.1-1.4,0.9-1.3,1.7C44.9,74.5,45.6,75,46.3,75z M7.5,39.7
			c0,0.6,0,1.1,0,1.7c0,7.9,2.8,15.6,7.8,21.6c4.9,6,11.8,10.1,19.4,11.7c0.1,0,0.2,0,0.3,0c0.7,0,1.3-0.5,1.5-1.2
			c0.2-0.8-0.4-1.6-1.2-1.8c-14.4-2.9-24.8-15.7-24.8-30.4c0-0.5,0-1,0-1.5c0-0.8-0.6-1.5-1.4-1.6C8.2,38.3,7.5,38.9,7.5,39.7z
			 M49.1,11.4c0.8,0.2,1.6-0.3,1.8-1.1c0.2-0.8-0.3-1.6-1.1-1.8c-2.7-0.7-5.6-1.1-8.5-1.1c0,0,0,0,0,0c-13.6,0-25.9,8.1-31.3,20.6
			c-0.3,0.8,0,1.6,0.8,2c0.2,0.1,0.4,0.1,0.6,0.1c0.6,0,1.1-0.3,1.4-0.9C17.8,17.8,29,10.4,41.4,10.4C44,10.4,46.6,10.7,49.1,11.4z
			 M67.9,41.4c0-14.6-11.9-26.5-26.5-26.5c-1,0-2,0.1-3.1,0.2c-0.8,0.1-1.4,0.8-1.3,1.7c0.1,0.8,0.8,1.4,1.7,1.3
			c0.9-0.1,1.8-0.2,2.7-0.2c13,0,23.6,10.6,23.6,23.6C65,54.4,54.4,65,41.4,65c-2.1,0-4.2-0.3-6.3-0.8c-0.8-0.2-1.6,0.2-1.8,1
			c-0.2,0.8,0.2,1.6,1,1.8c2.3,0.6,4.7,1,7.1,1C56,67.9,67.9,56,67.9,41.4z M17.9,41.4c0-8,4-15.4,10.8-19.8
			c0.7-0.4,0.9-1.4,0.4-2.1c-0.4-0.7-1.4-0.9-2.1-0.4C19.4,24,14.9,32.4,14.9,41.4c0,7.6,3.2,14.8,8.9,19.8c0.3,0.3,0.6,0.4,1,0.4
			c0.4,0,0.8-0.2,1.1-0.5c0.5-0.6,0.5-1.6-0.1-2.1C20.7,54.5,17.9,48.1,17.9,41.4z M35.6,34c-0.8-0.8-1.4-0.4-2,0.2L33,34.8
			c-1-0.6-2.1-0.9-3.3-0.9c-3.4,0-6.2,2.5-6.2,5.9c0,3.4,2.8,5.8,6.2,5.8c0.7,0,1.4-0.1,2-0.4c0.7,0.5,1,1.2,0.9,2
			c-0.2,0.9-1,1.8-2.8,1.8c-1.4,0-2.4-0.6-3.1-1.4c-0.4-0.5-0.6-0.9-1.7-0.3c-1.1,0.6-1.1,1-0.9,1.6c0.9,1.8,3,3,5.8,3
			c3.7,0,5.6-2.2,5.7-4.6c0.1-1.5-0.6-2.8-1.5-3.4c1.1-1,1.7-2.5,1.7-4c0-1.2-0.4-2.5-1.1-3.4l0.6-0.5C36,35.4,36.5,34.9,35.6,34z
			 M29.7,42.9c-1.5,0-2.8-1.1-2.8-3.1c0-1.9,1.2-3.1,2.8-3.1c1.5,0,2.7,1.1,2.7,3.1C32.5,41.8,31.2,42.9,29.7,42.9z M37.9,42.8
			c-0.5,0.5-0.7,0.8-0.7,1.6c0,0.4,0,1.6,1.3,1.6h7.2c1,0,1.2-0.7,1.2-1.4s-0.1-1.4-1.2-1.4h-3.9l3.1-3.4c1.9-2,2.2-4.4,0.8-6.2
			c-0.8-1.1-2.2-1.7-3.9-1.7c-1.4,0-2.8,0.5-3.7,1.2c-0.5,0.4-0.7,0.7-0.7,1.1c0,0.4,0.2,0.8,0.5,1.1c0.9,1,1.6,0.5,1.9,0.3l0,0
			c0.6-0.5,1.3-0.8,2-0.8c0.5,0,0.9,0.2,1.2,0.5c1,1.1-0.2,2.7-1,3.5L37.9,42.8z M54.4,34c-4,0-6,3-6,6.1c0,6,6.4,7,9.9,5.3
			c0.6-0.3,1-0.7,0.6-1.8c-0.3-0.9-0.9-0.9-1.9-0.5c-0.6,0.2-1.3,0.4-2,0.4c-1.4,0-2.8-0.7-3.1-2.4H57C61,40.9,60.3,33.9,54.4,34z
			 M55.6,38.7h-3.8c0.2-1.2,1.1-2.2,2.6-2.2C56.5,36.6,57.1,38.7,55.6,38.7z"/>
	</g>
</g>
</svg>
